<svg xmlns="http://www.w3.org/2000/svg" width="300" height="140" viewBox="0 0 300 140" fill="none"><path d="M90.175 64.993c-16.623 4.045-28.102 12.439-31.764 16.13 1.308 10.092 31.087 8.566 45.813 6.542-2.285-2.934-8.292-11.575-14.05-22.672z" fill="#e0d14d"/><circle cx="149.497" cy="70" r="70" fill="url(#paint0_linear)"/><mask id="a" maskUnits="userSpaceOnUse" x="63" y="0" width="140" height="140"><circle cx="133" cy="70" r="70" fill="url(#paint1_linear)"/></mask><g mask="url(#a)" transform="translate(16.497)"><g opacity=".25" fill="#e9f1f4"><path d="M174.5 83c2.283.274 10.359 1.657 12.5 2H48V73c7.849 1.371 23.904 4.251 25.33 4.8 1.785.686 8.92-1.714 10.704-1.714 1.784 0 4.281-1.715 5.351-2.057 1.07-.343 10.347 1.028 13.914 2.057 3.568 1.028 28.185 4.8 30.326 4.8 2.141 0 9.276.343 11.06 1.028 1.784.686 17.838 0 19.979 0 2.141 0 6.982.743 9.836 1.086zM108.521 51.583c1.76.212 7.985 1.278 9.635 1.542H11.01v-9.25c6.05 1.057 18.426 3.277 19.526 3.7 1.375.529 6.876-1.321 8.25-1.321 1.376 0 3.3-1.322 4.126-1.586.825-.264 7.975.793 10.725 1.586s21.726 3.7 23.376 3.7c1.65 0 7.15.264 8.525.793 1.375.528 13.75 0 15.401 0 1.65 0 5.382.572 7.582.836zM178 93.527l-.445.046c-2.294-.004-12.895-.946-18.509-1.475-3.576-.595-10.871-1.857-11.443-2.143-.716-.357-22.53-1.43-23.603-.715.715 0 20.026 1.43 22.172 2.5 2.146 1.072 11.802.715 16.808 1.787 3.836.82 11.041.397 14.575.046.288 0 .445-.014.445-.046zM51 61.786l.139-.033c2.422-.476 15.07 1.002 21.213 1.818L89 65l-14.838-2.5c-.845 0-2.968-.071-4.705-.357C67.286 61.786 59.324 60 58.962 60c-.284 0-5.246 1.148-7.823 1.753-.05.01-.097.02-.139.033z"/></g><path d="M42 128.143v-.98h10.725V117.367h5.49v-10.285h4.724v10.285h3.32v-3.673h1.659v-1.959H78.77v1.959h1.66v3.673h6.384v-7.469h3.32v7.469h3.191v-10.285h1.405v-1.47h10.98v1.47h1.404v4.04h3.703v4.164h7.022v2.449h10.724v-10.286h4.341v-2.082h2.171v2.082h4.341v5.143h3.575v3.184h14.044v-9.796h15.449v4.04h10.597v3.429h5.107v-7.225h2.042V105h4.597v1.224h1.787v7.225h5.235v4.408h5.234v-1.959h3.065v4.653h6.256v6.122H221V161H42z" fill="#142e42"/><path d="M191.828 139.934H-43v-4.379h8.59v-3.523h6.378v-10.536h5.287v10.536h5.947v-5.037h1.19v-1.218h7.566v1.218h.991v4.938h2.313v-7.408h3.8v7.738H.22v-2.47h3.469v-4.28H8.81v5.927h5.451v-12.018h2.809v-1.646h14.538v2.14h2.148v12.182h2.974v-2.963h2.808v2.963h2.974v-4.445h6.608V133.58h6.444v-20.414h1.982v-1.152h3.14v1.317h1.816v16.298h6.609v-9.219h6.608v5.762h15.034v6.091h6.608v-14.816h7.6v11.688h5.287v3.457h5.287v-2.963h2.643v-7.902h3.139v-2.14h13.712v2.14h2.974v8.889h2.643v2.634h3.304v-6.255h15.034v3.457h13.052v4.445h7.269v-2.47h4.296v2.47h5.451v2.963H195v2.074z" fill="#11181d"/></g><path d="M195.27 79.092c-35.108 5.085-128.207 14.312-136.86 2.03.318 4.692 2.013 15.878 6.572 27.778 18.133 2.091 120.145-17.944 130.287-29.808z" fill="#fbe752"/><circle cx="112.997" cy="42.5" r="12.5" opacity=".5" fill="#b9f1f5"/><path d="M258.111 87.873l-7.366-6.848 14.833-1.82 6.963 6.215z" fill="#a5b1d9"/><path d="M271.91 83.878c-1.863-1.54-5.648-4.639-5.895-4.726l-10.034 1.23 6.04 4.709z" fill="#e1ebf7"/><ellipse rx="8.791" ry="8.925" transform="scale(-1 1) rotate(6.994)" cx="-250.888" cy="125.42" fill="#a5b1d9"/><path d="M272.077 103.297l-8.724-.565-2.789-16.4 9.038-3.202z" fill="#a5b1d9"/><ellipse rx="10.179" ry="10.156" transform="scale(-1 1) rotate(6.994)" cx="-257.829" cy="125.42" fill="#fffeff"/><ellipse rx="8.351" ry="8.332" transform="scale(-1 1) rotate(6.994)" cx="-257.914" cy="125.428" fill="#484647"/><mask id="b" maskUnits="userSpaceOnUse" x="246" y="84" width="18" height="18"><ellipse rx="8.351" ry="8.332" transform="scale(-1 1) rotate(6.994 -888.975 -2037.86)" fill="#363636"/></mask><g mask="url(#b)" transform="translate(16.497)"><ellipse rx="8.351" ry="8.332" transform="scale(-1 1) rotate(6.994 -889.59 -2027.77)" fill="#363636"/></g><path d="M271.505 94.446c-.852.105-1.62-.5-1.723-1.339a1.543 1.543 0 011.348-1.716c.852-.105 1.62.5 1.723 1.34a1.543 1.543 0 01-1.348 1.715zm.243 1.985a3.543 3.543 0 01-3.951-3.08 3.543 3.543 0 013.088-3.945 3.543 3.543 0 013.952 3.08 3.543 3.543 0 01-3.09 3.945z" clip-rule="evenodd" fill="#ccccca" fill-rule="evenodd"/><path d="M236.51 91.114l-7.38-6.861 14.863-1.824 6.976 6.228z" fill="#a5b1d9"/><path d="M250.335 87.111c-1.865-1.542-5.658-4.648-5.906-4.735l-10.054 1.233 6.052 4.718z" fill="#e1ebf7"/><ellipse rx="8.808" ry="8.943" transform="scale(-1 1) rotate(6.994)" cx="-229.063" cy="126.021" fill="#a5b1d9"/><path d="M250.505 106.57l-8.741-.566-2.795-16.434 9.057-3.208z" fill="#a5b1d9"/><ellipse rx="10.199" ry="10.176" transform="scale(-1 1) rotate(6.994)" cx="-236.019" cy="126.021" fill="#fffeff"/><ellipse rx="8.368" ry="8.349" transform="scale(-1 1) rotate(6.994)" cx="-236.104" cy="126.029" fill="#484647"/><mask id="c" maskUnits="userSpaceOnUse" x="224" y="87" width="18" height="18"><ellipse rx="8.368" ry="8.349" transform="scale(-1 1) rotate(6.994 -904.796 -1859.718)" fill="#363636"/></mask><g mask="url(#c)" transform="translate(16.497)"><ellipse rx="8.368" ry="8.349" transform="scale(-1 1) rotate(6.994 -905.414 -1849.62)" fill="#363636"/></g><path d="M249.931 97.705a1.55 1.55 0 01-1.73-1.345 1.55 1.55 0 011.354-1.724 1.55 1.55 0 011.73 1.345 1.55 1.55 0 01-1.353 1.724zm.243 1.985a3.55 3.55 0 01-3.959-3.086 3.55 3.55 0 013.095-3.953 3.55 3.55 0 013.96 3.087 3.55 3.55 0 01-3.096 3.953z" clip-rule="evenodd" fill="#ccccca" fill-rule="evenodd"/><path d="M297.8 75.964c-2.303.413-42.39 7.103-62.146 10.397l.497-5.28 53.141-6.52c1.933-.237 9.82.1 8.509 1.403z" fill="#a5b1d9"/><mask id="d" maskUnits="userSpaceOnUse" x="218" y="73" width="64" height="14"><path d="M281.304 75.964c-2.303.413-42.39 7.103-62.146 10.397l.497-5.28 53.141-6.52c1.932-.237 9.82.1 8.508 1.403z" fill="#a5b1d9"/></mask><g mask="url(#d)" transform="translate(16.497)"><path d="M288.051 73.668c-23.707 3.507-71.218 10.532-71.605 10.58l.116-5.723 63.93-7.844z" fill="#f4f9ff"/></g><path d="M120.573 108.662l-8.929-8.3 17.98-2.206 8.44 7.533z" fill="#a5b1d9"/><path d="M137.298 103.82c-2.257-1.866-6.845-5.623-7.144-5.73l-12.163 1.493 7.32 5.707z" fill="#e1ebf7"/><ellipse rx="10.656" ry="10.818" transform="scale(-1 1) rotate(6.994)" cx="-112.986" cy="130.743" fill="#a5b1d9"/><path d="M137.504 127.36l-10.575-.686-3.382-19.88 10.957-3.881z" fill="#a5b1d9"/><ellipse rx="12.338" ry="12.31" transform="scale(-1 1) rotate(6.994)" cx="-121.4" cy="130.743" fill="#fffeff"/><ellipse rx="10.123" ry="10.1" transform="scale(-1 1) rotate(6.994)" cx="-121.504" cy="130.752" fill="#484647"/><mask id="e" maskUnits="userSpaceOnUse" x="109" y="104" width="22" height="22"><ellipse rx="10.123" ry="10.1" transform="scale(-1 1) rotate(6.994 -1000.74 -924.486)" fill="#363636"/></mask><g mask="url(#e)" transform="translate(16.497)"><ellipse rx="10.123" ry="10.1" transform="scale(-1 1) rotate(6.994 -1001.486 -912.238)" fill="#363636"/></g><path d="M136.857 117.052a2.294 2.294 0 01-2.56-1.993 2.295 2.295 0 012.002-2.553 2.296 2.296 0 012.562 1.993 2.295 2.295 0 01-2.004 2.553zm.244 1.985a4.295 4.295 0 01-4.79-3.735 4.294 4.294 0 013.745-4.781 4.293 4.293 0 014.79 3.734 4.294 4.294 0 01-3.745 4.782z" clip-rule="evenodd" fill="#ccccca" fill-rule="evenodd"/><path d="M231.204 63.259c4.74 3.985 7.194 12.001 7.391 13.608-1.654 17.164-11.71 23.128-22.18 25.717-59.903 14.036-67.004 5.448-74.98.392-6.38-4.045-9.336-13.478-10.016-17.69-.539-1.727.713-3.512 1.298-4.073-.079-.643-8.129-47.603-7.905-48.446.224-.843 3.044-1.841 3.849-1.94.805-.099 1.446 1.127 1.985 2.855 3.092 10.548 14.058 34.644 16.102 37.981 1.635 2.67 4.112 2.432 5.146 1.979l24.714-9.067c8.36-3.363 26.954-9.993 34.455-9.609 9.376.48 15.403 4.308 20.142 8.293z" fill="#fff"/><mask id="f" maskUnits="userSpaceOnUse" x="108" y="18" width="118" height="97"><path d="M214.708 63.259c4.739 3.985 6.773 11.238 7.391 13.608-1.654 17.164-11.711 23.128-22.181 25.717-59.902 14.036-67.003 5.448-74.979.392-6.381-4.045-9.336-13.478-10.016-17.69-.539-1.727.713-3.512 1.298-4.073-.079-.643-8.129-47.603-7.905-48.446.223-.843 3.043-1.841 3.848-1.94.805-.099 1.446 1.127 1.985 2.855 3.092 10.548 14.058 34.644 16.102 37.981 1.635 2.67 4.112 2.432 5.146 1.979l24.714-9.067c8.36-3.363 26.954-9.993 34.455-9.609 9.376.48 15.403 4.308 20.142 8.293z" fill="#feffff"/></mask><g mask="url(#f)" transform="translate(16.497)"><path d="M213.054 72.432c7.256 3.187 10.808 6.828 12.875 9.02l2.878 23.459-113.368 13.908-10.506-85.637c.961-.607 3.325-1.94 5.097-2.42 3.825 15.188 8.885 32.046 15.303 43.462 3.345 5.95 15.735 1.467 21.089.022 1.772-.478 23.71-7.475 34.458-10.914 3.142-1.038 5.004-1.382 8.213-1.008 5.349.623 9.179 6.865 11.956 6.85 1.206.505 4.748.07 12.005 3.258z" fill="#e1ebf7"/><path d="M220.179 79.875c1.788 1.248 3.391 3.66 1.791 7.934l2.306 18.799-104.028 12.763-2.858-23.297c25.147 2.46 44.679-2.22 59.697-5.041 15.019-2.821 29.565-9.499 32.71-11.842 3.146-2.343 8.594-.565 10.382.684z" fill="#a5b1d9"/><path d="M209.536 63.732l5.475-.672 2.185 3.157-6.119.75zM200.194 64.876l8.213-1.008 1.863 3.197-9.823 1.205zM197.057 64.609l1.85.425.414 3.374-1.028.942-2.478 1.12-1.387-.646zM192.547 65.162l3.059-.375-2.691 6.038-1.611.198-1.387-.646z" fill="#494347"/></g><path d="M91.621 110.845l-9.348-8.691 18.825-2.31 8.835 7.888z" fill="#a5b1d9"/><path d="M109.13 105.775c-2.362-1.953-7.166-5.887-7.48-5.998l-12.734 1.562 7.665 5.976z" fill="#e1ebf7"/><ellipse rx="11.156" ry="11.327" transform="scale(-1 1) rotate(6.994)" cx="-84.292" cy="129.769" fill="#a5b1d9"/><path d="M109.346 130.421l-11.072-.717-3.54-20.815 11.472-4.064z" fill="#a5b1d9"/><ellipse rx="12.918" ry="12.889" transform="scale(-1 1) rotate(6.994)" cx="-93.1" cy="129.77" fill="#fffeff"/><ellipse rx="10.599" ry="10.575" transform="scale(-1 1) rotate(6.994)" cx="-93.208" cy="129.779" fill="#484647"/><mask id="g" maskUnits="userSpaceOnUse" x="80" y="105" width="24" height="25"><ellipse rx="10.599" ry="10.575" transform="scale(-1 1) rotate(6.994 -1006.928 -692.502)" fill="#363636"/></mask><g mask="url(#g)" transform="translate(16.497)"><ellipse rx="10.599" ry="10.575" transform="scale(-1 1) rotate(6.994 -1007.713 -679.68)" fill="#363636"/></g><path d="M108.682 119.722a2.497 2.497 0 01-2.786-2.168 2.497 2.497 0 012.18-2.778 2.497 2.497 0 012.786 2.168 2.497 2.497 0 01-2.18 2.778zm.244 1.985a4.497 4.497 0 01-5.015-3.91 4.497 4.497 0 013.921-5.006 4.497 4.497 0 015.015 3.91 4.497 4.497 0 01-3.921 5.006z" clip-rule="evenodd" fill="#ccccca" fill-rule="evenodd"/><path d="M28.99 109.758c1.772-.217 3.346-2.041 5.266-5.049-1.738.05-5.667.173-7.487.266.056 1.787.45 5.001 2.222 4.783zM57.634 107.386c1.771-.217 3.345-2.041 5.265-5.049-1.738.05-5.667.173-7.487.266.056 1.787.45 5 2.222 4.783z" fill="#a5b1d9"/><path d="M165.093 90.614c5.173-.471 8.038 4.233 8.156 5.197-.322 8.031-13.198 7.001-15.331 6.937-2.133-.065-51.955-1.128-62.54-.808-10.586.32-75.111 4.649-76.721 4.846-1.289.158-1.65-.124-1.67-.284l-.158-1.286c-.039-.321.063-.823.526-1.043 2.035-.739 142.565-13.087 147.738-13.559z" fill="#f4f9ff"/><mask id="h" maskUnits="userSpaceOnUse" x="0" y="85" width="158" height="36"><path d="M148.596 90.614c5.173-.471 8.038 4.233 8.156 5.197-.322 8.031-13.198 7.001-15.331 6.937-2.133-.065-51.954-1.128-62.54-.808-10.585.32-75.11 4.649-76.72 4.846-1.29.158-1.65-.124-1.67-.284l-.158-1.286c-.04-.321.062-.823.526-1.043 2.034-.739 142.564-13.087 147.737-13.559z" fill="#fff"/></mask><g mask="url(#h)" transform="translate(16.497)"><path d="M-2.004 106.155c11.917-1.984 113.984-8.439 163.528-11.418l1.261 10.282c-54.733 1.986-164.316 4.993-164.79 1.136z" fill="#a5b1d9"/></g><path d="M135.446 84.793l2.047 2.032c-.294 1.862-1.62 3.677-2.245 4.352-15.232-.251-45.995-.783-47.186-.897-1.489-.144-2.793-1.452-1.725-2.072.901-.11 33.114-2.323 49.108-3.415z" fill="#ced2df"/><mask id="i" maskUnits="userSpaceOnUse" x="69" y="82" width="53" height="16"><path d="M118.949 84.793l2.047 2.032c-.294 1.862-1.619 3.677-2.245 4.352-15.232-.251-45.995-.783-47.186-.897-1.488-.144-2.793-1.452-1.725-2.072.902-.11 33.115-2.323 49.109-3.415z" fill="#b2d0d0"/></mask><g mask="url(#i)" transform="translate(16.497)"><path d="M65.209 89.103c5.986.831 40.772-1.197 57.416-2.314l-4.232-5.19-42.671 3.931c-3.676.234-10.926 1.275-10.513 3.573z" fill="#fff"/></g><path d="M163.996 19l1.5 1.5-1.5 1.5-1.5-1.5zM156.996 34l1.5 1.5-1.5 1.5-1.5-1.5z" opacity=".75" fill="#fff"/><path d="M187.996 32l1.5 1.5-1.5 1.5-1.5-1.5z" opacity=".25" fill="#fff"/><path d="M171.996 47l1.5 1.5-1.5 1.5-1.5-1.5z" opacity=".75" fill="#fff"/><path d="M138.996 23l1.5 1.5-1.5 1.5-1.5-1.5z" opacity=".25" fill="#fff"/><path d="M99.997 64l1.5 1.5-1.5 1.5-1.5-1.5z" opacity=".75" fill="#fff"/><path d="M135.996 59l1.5 1.5-1.5 1.5-1.5-1.5z" opacity=".25" fill="#fff"/><defs id="defs187"><linearGradient id="paint0_linear" x1="133" y1="0" x2="133" y2="140" gradientUnits="userSpaceOnUse" gradientTransform="translate(16.497)"><stop stop-color="#4466DF" id="stop177"/><stop offset=".713" stop-color="#47D9E2" id="stop179"/></linearGradient><linearGradient id="paint1_linear" x1="133" y1="0" x2="133" y2="140" gradientUnits="userSpaceOnUse"><stop stop-color="#88E6E6" id="stop182"/><stop offset=".906" stop-color="#B2EFE8" id="stop184"/></linearGradient></defs></svg>