<svg xmlns="http://www.w3.org/2000/svg" width="280" height="140" viewBox="0 0 280 140" fill="none"><circle cx="140" cy="70" r="70" fill="url(#paint0_linear)"/><mask id="a" maskUnits="userSpaceOnUse" x="70" y="0" width="140" height="140"><circle cx="140" cy="70" r="70" fill="url(#paint1_linear)"/></mask><g mask="url(#a)"><g opacity=".5" fill="#e9f1f4"><path d="M85.5 82c-2.283.274-10.36 1.657-12.5 2h139V72c-7.849 1.371-23.904 4.251-25.331 4.8-1.784.686-8.919-1.714-10.703-1.714-1.784 0-4.281-1.715-5.351-2.057-1.071-.343-10.347 1.028-13.914 2.057-3.568 1.028-28.185 4.8-30.326 4.8-2.141 0-9.276.343-11.06 1.028-1.784.686-17.838 0-19.98 0-2.14 0-6.98.743-9.835 1.086zM90 76.527l.445.046c2.294-.004 12.895-.946 18.509-1.475 3.576-.595 10.871-1.857 11.443-2.143.716-.357 22.53-1.43 23.603-.715-.715 0-20.026 1.43-22.172 2.5-2.146 1.072-11.802.715-16.808 1.787-3.836.82-11.041.397-14.575.046-.288 0-.445-.014-.445-.046zM209 60.786l-.139-.033c-2.422-.476-15.07 1.002-21.213 1.818L171 64l14.838-2.5c.845 0 2.968-.071 4.705-.357 2.171-.357 10.133-2.143 10.495-2.143.284 0 5.246 1.148 7.823 1.753.051.01.097.02.139.033z"/></g><path d="M61.025 139.934v-2.377h11.289v-17.716h5.285V90.34h2.411v-2.045h6.157v1.892h2.207v17.204h4.464v-2.735h11.108v-3.733h1.539V74.669h2.232v-3.067h1.694V67.69h1.539v3.733h1.539v3.425h2.566v28.453h7.183v-5.803h7.876v6.493h4.438V90.187h4.285v7.31h1.539v10.073h5.824V81.316l9.749-10.916h1.872v30.856h3.259v-3.58h10.416v3.58h3.078v-31.52h3.438V67h7.004v2.889h3.412V99.21h6.157v2.888h6.003V88.474l1.54-1.202h8.03l1.539 1.534v16.208h4.284v9.356h4.105v25.564z" fill="#a25ec2"/><path d="M-73.937 138.5v-1.714h18.064v-17.143h9.247v-18h7.957v18h5.591v-6.429h2.796v-3.428h18.279v3.428h2.795v6.429H1.545v-13.072h5.591v13.072h5.376v-18h2.366v-2.572h18.494v2.572h2.365v7.071h6.237V116H53.8v4.286h18.064v-18h7.312v-3.643h3.656v3.643h7.311v9h6.022v5.571h23.655V99.714h26.021v7.072h17.849v6h8.602v-12.643h3.441V98h7.741v2.143h3.011v12.643h8.817v7.714h8.817v-3.429h5.161v8.143h10.537v10.715h7.742V140H-73.937z" fill="#6249a7"/><path d="M270.828 139.934H36v-4.379h8.59v-3.523h6.378v-10.536h5.287v10.536h5.947v-5.037h1.19v-1.218h7.566v1.218h.991v4.938h2.313v-7.408h3.8v7.738h1.157v-2.47h3.469v-4.28h5.121v5.927h5.452v-12.018h2.809v-1.646h14.538v2.14h2.148v12.182h2.974v-2.963h2.808v2.963h2.974v-4.445h6.609V133.58h6.443v-20.414h1.982v-1.152h3.139v1.317h1.817v16.298h6.609v-9.219h6.608v5.762h15.034v6.091h6.609v-14.816h7.599v11.688h5.287v3.457h5.287v-2.963h2.643v-7.902h3.139v-2.14h13.712v2.14h2.974v8.889h2.643v2.634h3.304v-6.255h15.034v3.457h13.052v4.445h7.269v-2.47h4.296v2.47h5.451v2.963H274v2.074z" fill="#422d7e"/></g><mask id="b" maskUnits="userSpaceOnUse" x="-30" y="0" width="240" height="140"><path d="M210 70c0 38.66-31.34 70-70 70H-29.5V0H140c38.66 0 70 31.34 70 70z" fill="#c4c4c4"/></mask><g mask="url(#b)"><path d="M13 90.75C-2.865 76.7.88 64.479 1.003 60.18c27.91 11.524 67.692 4.86 80.546 4.31 12.853-.548 38.928-6.31 43.335-5.761 3.525.438 9.058 1.097 11.384 1.371 26.138 36.398-28.887 40.961-33.285 74.313-3.305.274-5.399-3.568-10.173-3.842-12.854-.549-13.456 8.804-26.31 8.804-13.86 0-24.344-12.218-35-19.875C15.6 108.074 21.89 98.79 13 90.75z" fill="#e0d14d"/><mask id="c" maskUnits="userSpaceOnUse" x="0" y="58" width="144" height="82"><path d="M13 90.75C-2.865 76.7.88 64.479 1.003 60.18c27.91 11.524 67.692 4.86 80.546 4.31 12.853-.548 38.928-6.31 43.335-5.761 3.525.438 9.058 1.097 11.384 1.371 26.138 36.398-28.887 40.961-33.285 74.313-3.305.274-5.399-3.568-10.173-3.842-12.854-.549-13.456 8.804-26.31 8.804-13.86 0-24.344-12.218-35-19.875C15.6 108.074 21.89 98.79 13 90.75z" fill="#e0d14d"/></mask><g mask="url(#c)"><path d="M21.25 71C10.157 67.98 2.688 59.801-5.375 56.625c42.881-.61 125.437.162 135.113 1.921-6.231 1.1-4.032 1.833-16.126 8.43-9.676 5.277-31.153 8.063-40.682 8.796-12.095.366-30.333 1.04-51.68-4.772z" fill="#fbe752"/></g><circle cx="174.549" cy="46.438" r="7.801" opacity=".75" fill="#2eede2"/><path d="M181.039 53.084a9.013 9.013 0 001.015-11.977c-3.021-4.039-8.761-4.903-12.822-1.93-4.06 2.973-4.902 8.658-1.881 12.697 2.792 3.733 7.906 4.754 11.871 2.54.007.438.097.98.191 1.107l10.267 14.26c.155.208.45.252.658.1l1.885-1.38a.462.462 0 00.096-.652l-10.267-14.26c-.094-.127-.592-.37-1.013-.505zm-.635-10.769a6.99 6.99 0 01-1.459 9.849c-3.149 2.306-7.602 1.635-9.945-1.498a6.99 6.99 0 011.46-9.848c3.149-2.306 7.601-1.636 9.944 1.497z" clip-rule="evenodd" fill="#142e42" fill-rule="evenodd"/><path d="M171.114 76.356c-1.646 0-6.996-.82-7.407-.82h-10.701c-.411-4.37-.987-13.194 0-13.522 1.235-.41 8.643 0 11.935.41 2.634.328 6.859 3.688 8.643 5.327 2.469.136 8.148.492 11.112.82 3.703.41 18.108 7.785 18.931 8.604.823.82-2.058 3.278-3.704 3.688-4.895 1.218-12.278-2.16-16.051-2.868-1.667-.314-11.111-1.64-12.758-1.64z" fill="#c31f1b"/><path d="M182.281 65.876c-1.233 0-1.233-2.044-1.233-3.27.822-2.861 4.109-4.905 4.52-5.314.411-.41 2.466-.818 3.287-.41.822.41 5.753 6.95 6.575 8.177.657.981 0 2.044-.411 2.453-.548.272-1.151.49-2.466.817-1.314.327-2.739-.136-3.287-.409-4.109 0-2.465 0-3.698-.817-2.876.409-2.054-1.227-3.287-1.227z" fill="#000"/><path d="M195.822 80.775c-4.185-2.809-3.767-7.49-3.767-9.363v-10.3l14.649 14.982-3.349 3.745c-.418.468-3.766 1.405-7.533.936z" fill="#000"/><path d="M137.081 59.998l-.86-14.031 9.989 2.29 1.145 8.878 1.579 3.244 7.696 4.764 1.1 3.299-.925 12.46h-22.05l-3.78-14.293V60z" fill="#ff987f"/><mask id="d" maskUnits="userSpaceOnUse" x="130" y="45" width="28" height="36"><path d="M137.081 59.998l-.86-14.031 9.989 2.29 1.145 8.878 1.579 3.244 7.696 4.764 1.1 3.299-.925 12.46h-22.05l-3.78-14.293V60z" fill="#ff987f"/></mask><g mask="url(#d)"><path d="M149.646 57.135c-6.186-.687-10.405-6.491-11.455-9.164 5.269 4.582 10.023 5.441 11.455 5.441z" fill="#c26c57"/></g><path d="M156.264 69.541c0-1.832-1.604-4.764-4.902-7.696l8.2 5.13c3.152 1.308 6.066 2.299 8.063 5.819.765 1.346 1.833 5.177.367 8.475-.84 1.89-1.466 2.566-2.199 2.932-.443 1.484-.292 2.932-.733 9.163-.441 6.23-1.466 10.995-2.485 18.79.739.222 3.609 8.499 5.051 13.829 2.565 11.362 3.664 15.027 4.764 20.891-9.143 8.356-53.499-3.125-59.007-14.294 3.298-1.466 6.388-2.566 7.33-3.665 1.833-4.032 8.063-10.053 11.728-13.194 5.131-4.398 9.529-8.43 12.095-10.996.369-3.93-6.145-13.19-8.43-16.492-2.472-3.31-7.957-7.584-9.163-9.896-4.764 3.665-11.669 10.092-12.461 10.995-.792.904-6.004 6.09-6.597 5.498-.733-.733-1.031-.355-3.298-4.031-1.357-2.2.265-3.936 1.099-4.399 2.438-2.707 5.219-5.95 6.231-7.33 4.031-5.497 4.203-6.753 8.796-13.56 2.214-3.282 3.995-6.584 8.063-6.597 2.199 0 4.764 1.1 7.33 4.398 2.199.21 5.213.366 7.33 1.1 5.883 2.036 10.519 3.71 12.828 5.13z" fill="#c31f1b"/><path d="M152.5 105.562l-11.375-.875 16.125-1.437-1.625 2.75 8.562.625-1.062 4.562-13.063-2.937z" fill="#fbe752"/><path d="M160.158 73.573s-1.466-2.199-3.665-4.032c2.565 1.428 6.516 5.076 6.516 5.076l-1.432.11 3.712 3.596h-2.28l3.013 5.879-6.964-6.597 2.199-.367-3.962-3.374z" fill="#f9e234"/><path d="M143.374 52.553c-8.018-2.005-9.45-9.45-9.737-14.032-1.226-6.3 2.578-13.745 5.155-15.75 2.577-2.004 8.591-.859 12.027.86 3.437 1.717 4.868 7.445 6.014 12.026 1.145 4.582-.573 12.6-2.005 15.464-1.145 2.29-3.15 2.864-4.009 2.864-.477 0-2.634-.287-7.445-1.432z" fill="#ff987f"/><path d="M147.597 38.388c.367-.733.759-1.832.759-1.832s.105-.376-.239-.33c-1.555.618-2.523.33-4.185.33.855.733 2.786 2.126 3.665 1.832zM156 38.5c.315-.686.624-1.5.624-1.5s.176-.463 0-.416c-.624.166-1.655.229-3.202-.037.437.78 2.001 2.171 2.578 1.953z" fill="#664b44"/><path d="M152.342 49.336c-3.184-.334-4.758-2.559-4.985-3.886-.055-.325-.041-.506.163-.467 3.005.33 5.021-.481 6.404-.377 1.383.105 1.222.69 1 1.217-.565 1.347-1.591 2.66-1.626 3.121-.18.416-.671.387-.956.392z" fill="#c31f1b"/><path d="M151.871 48.47c-2.23-.536-3.669-1.432-3.849-2.484-.092-.539-.158-.641.295-.589 3.293.381 3.91-.298 5.006-.215 1.096.083.911.436.736.855-1.178 1.644-1.397 2.047-1.43 2.122-.173.503-.541.363-.758.31z" fill="#fff"/><path d="M154.848 35.367a4.199 4.199 0 00-1.342.681l-.625-.78a5.202 5.202 0 011.682-.859c.725-.216 1.611-.296 2.482.052l-.372.928c-.596-.238-1.237-.197-1.825-.022zm-8.913.047a19.784 19.784 0 00-2.962.01l-.083-.997a20.79 20.79 0 013.123-.01 10.88 10.88 0 011.696.252c.517.126 1.015.31 1.387.589l-.6.8c-.214-.16-.56-.304-1.024-.417a9.868 9.868 0 00-1.537-.227z" clip-rule="evenodd" fill="#302322" fill-rule="evenodd"/><path d="M153.561 42.054c-1.283 0-2.566.366-3.299 0 .192-.576.573-.432 1.1-.734.733 0 1.1-.366 2.565-.366-.064.512.023.76-.366 1.1z" fill="#c26c57"/><path d="M97.332 14.566C96.232 13.1 94.693 12 91.468 12c-7.33 0-10.704 7.33-7.33 16.126 2.717 7.085 11.313 8.943 17.959 7.697-3.99 3.99-12.088.41-15.027-2.932 2.566 6.23 6.14 10.583 9.163 12.094 9.177 4.59 27.554 6.957 35.184-2.199 1.833-2.199 5.498-6.963 6.597-9.895 1.1-2.932 2.566-5.498 5.131-5.498 2.52 0 7.328 2.203 8.796-.733.367-.733 3.067 1.455 3.434 4.387 1.1-1.466 1.697-2.92 1.697-4.753 0-1.833 0-3.299-1.466-4.032l-.07-.034c.357-2.188-.024-4.377-3.67-6.93-12.852-8.996-28.332 2.566-41.782 2.566-4.636 0-7.33-1.833-2.199-4.398-12.181-2.03-7.033 12.135 4.398 12.828h.112c-5.607 2.699-17.815 5.515-21.66-.733-2.932-4.765-5.207-12.828 6.597-10.995z" fill="#302322"/><path d="M87.317 18.945c-1.41 2.62-1.549 8.735 9.174 12.235-1.783.011-3.397-.42-3.98-.638.646.598 2.35 2.01 3.994 2.867-3.2-.883-7.252-3.39-8.583-4.345.647 2.059 1.15 3.236 3.065 4.787-3.593-2.876-6.476-7.013-6.77-9.464a21.766 21.766 0 002.605 2.274c-.81-1.12-1.845-4.23.495-7.716zM145.497 25.927c-.247-3.298-4.398-4.764-7.696-4.764 1.832-.733 5.131-.733 7.696 0 1.1-1.466-2.46-2.618-3.56-3.35.88 0 3.805.54 4.66.784-.122-.61-.806-2.052-2.566-2.932 1.833 0 7.697 1.466 9.896 4.032 2.199 2.565-.367 4.764-2.199 6.597.733-.733.733-2.932 0-3.665 0 1.832-1.466 2.565-3.299 3.665.383-2.232-.867-2.932-2.565-2.932.122.244.22 1.1-.367 2.565z" fill="#3a523b"/><path d="M131.798 38.234c1.397 0 2.744 1.663 3.243 2.495l1.746 4.241c-.582.25-2.195.749-3.992.749-2.245 0-3.991-2.246-4.241-4.99-.249-2.745 1.497-2.495 3.244-2.495z" fill="#ff987f"/><path d="M133.794 40.729h-3.244c-.499-.25 0-1.497.998-1.497.799 0 1.83.998 2.246 1.497zM133.794 42.725c-.499.25-.998-.5-1.747-1.497.166 0 .749.748 1.497.748.499.25.418.665.25.749z" fill="#c26c57"/><path d="M104.905 92.631c1.099 1.1 12.461 13.561 14.293 15.76l5.042-4.515c-4.619-6.856-11.968-16.748-16.77-19.308-.855.733-2.785 2.492-3.665 3.665-1.099 1.466 0 3.299 1.1 4.398z" fill="#c31f1b"/><path d="M134.272 108.913c-.726.581-3.764 1.393-6.202 0-.657-1.182-2.421-4.897-4.791-8.413l-6.862 6.235c1.742 2.091 11.468 8.129 16.113 10.452 2.532.751 7.839 0 7.839 0 .33-.436.871-.436 1.742-2.613.362-.904 0-4.79 0-5.661 0-.871-3.049-3.048-4.79-3.048-1.394 0-2.323 1.741-3.049 3.048z" fill="#050102"/><path d="M126.072 59.28c.284-.711 2.238-.794 2.566-.417.597-.696 1.462-.48 2.14 0 .756-.652 1.792-.06 2.522.358l.102.058c.236-.468 1.895-.394 2.933.733 1.642 1.784 3.026 2.572 5.984 4.258l.246.14c-2.701.097-9.989-.853-16.493-5.13zm24.007 1.861c.162-.676 1.151-.034 1.421.359.396-.64 1.461-.519 2 0 .541-.614 1.5-.359 2.036.156C156 61.5 156.5 61.5 157 62a12.006 12.006 0 01-.904 1.765c-.296.488-.59.974-1.096 2.235-1.27-1.588-1.935-2.167-2.871-2.983-.538-.468-1.166-1.015-2.05-1.876z" clip-rule="evenodd" fill="#fbe752" fill-rule="evenodd"/></g><defs id="defs104"><linearGradient id="paint0_linear" x1="140" y1="0" x2="140" y2="140" gradientUnits="userSpaceOnUse"><stop stop-color="#DE7373" id="stop94"/><stop offset=".489" stop-color="#A282E7" id="stop96"/></linearGradient><linearGradient id="paint1_linear" x1="140" y1="0" x2="140" y2="140" gradientUnits="userSpaceOnUse"><stop stop-color="#88E6E6" id="stop99"/><stop offset=".906" stop-color="#B2EFE8" id="stop101"/></linearGradient></defs></svg>