<svg xmlns="http://www.w3.org/2000/svg" width="161" height="140" viewBox="0 0 161 140" fill="none"><circle cx="81" cy="70" r="70" fill="url(#paint0_linear)"/><mask id="a" maskUnits="userSpaceOnUse" x="11" y="0" width="140" height="141"><circle cx="81" cy="70" r="70" fill="url(#paint1_linear)"/></mask><g opacity=".2" fill="#fff" mask="url(#a)"><path d="M-6.427-56.697l259.831 149.96-8.693 15.062L-15.12-41.635zM-55.665 27.404l259.83 149.96-9.334 16.174L-65 43.578zM-37.93-3.327l259.832 149.96-5.601 9.704L-43.53 6.377zM-25.794-24.354l259.831 149.96-4.667 8.086-259.831-149.96zM-45.397 9.612l259.831 149.96-3.734 6.47-259.83-149.96zM-34.195-9.797l259.831 149.96-.933 1.617L-35.128-8.18zM-16.908-34.706l259.831 149.96-2.194 3.802-259.831-149.96zM-51.931 20.934l259.83 149.96-.932 1.617L-52.864 22.55z"/></g><path d="M84.09 133.276c-2.393-6.275-4.824-12.501-7.948-18.463-1.841-3.514-3.925-6.885-5.908-10.319.21.44.41.886.598 1.336-.645-1.011-1.688-1.875-2.408-2.863-.803-1.103-1.519-2.277-2.212-3.449-1.354-2.286-2.667-4.587-4.109-6.823-1.606-2.49-3.344-4.9-5.013-7.35-1.417-2.08-2.807-4.286-4.457-6.197-.9-1.042-1.757-2.187-2.651-3.254-.3-.358-3.123-4.475-3.11-4.478.284-.07 1.84 1.687 2.09 1.94.726.74 1.383 1.533 2.046 2.327-.07-1.117-.024-2.24.213-3.34.072-.34.558-2.834.894-2.916.168-.041-.35 4.57-.456 4.99-.086.34-.291.796-.316 1.143-.042.56.013.409.266.843.463.795 1.23 1.498 1.785 2.235.301.392 1.152 1.8 1.784 2.368 1.77 2.05 3.32 4.7 4.849 7.004-.107-1.29-.06-2.57.126-3.852.043-.305.302-3.095.558-3.158.287-.07.192 4.322.13 4.714-.117.73-.397 1.476-.464 2.206-.073.8.535 1.357 1.003 2.044a124.516 124.516 0 014.853 7.754c4.335-3.311 3.774-9.804 2.964-14.496-.583-3.382-1.925-6.643-3.52-9.672-2.127-4.043-4.954-7.757-7.853-11.29-3.378-4.116-7.476-7.53-12.082-10.274-2.408-1.435-5.025-2.55-7.65-3.552-1.283-.49-2.565-.843-3.95-.952a13.078 13.078 0 00-1.875 0c-.475.03-1.507-.165-1.859.035-2.876 1.606-4.847 3.59-6 6.667-1.093 2.913-1.42 6.156-1.293 9.228.143 3.42.788 6.748 2.15 9.893 1.039 2.4 2.376 4.674 3.709 6.925 4.74 8.004 11.61 16.15 21.038 18.874 3.052.882 6.241 1.054 9.407.786.746-.063 1.49-.132 2.227-.268.497-.092 2.029-.811 2.435-.686.557.17 1.237 1.746 1.595 2.291a224.28 224.28 0 017.708 12.669c2.59 4.578 4.906 9.274 7.052 14.07.912 2.04 1.813 4.078 2.662 6.146.197.481.503 2.071 1.098 2.394.376.203.784-.017.884-.404.174-.671-.746-2.184-.99-2.826z" clip-rule="evenodd" fill="#d65d5d" fill-rule="evenodd"/><mask id="b" maskUnits="userSpaceOnUse" x="-26" y="-16" width="177" height="156"><path d="M151 70c0 38.66-31.34 70-70 70H-26V-15.5h177z" fill="#c4c4c4"/></mask><g mask="url(#b)"><path d="M123.181 46.192c-.367-2.022-1.072-12.485-1.378-17.464l-17.924 2.758-1.378 16.085c7.046.383 21.048.643 20.68-1.38z" fill="#e27659"/><path d="M121.886 11.264l-3.677-3.906h-13.328l-2.757 3.906-.919 11.49s-.083 8.731.147 11.489c1.269 2.78 2.987 5.055 5.138 5.974.836.23 5.432.433 6.664 0 1.831-.643 4.136-2.757 4.136-2.757s3.615-2.528 4.136-3.447c.521-.919.919-4.825.919-4.825z" fill="#fe987c"/><path d="M115.678 18.323c.1.04.234.085.38.085v-.92c.013 0 .02.002.02.002s-.016-.004-.052-.018a2.384 2.384 0 01-.231-.116 15.03 15.03 0 01-.224-.127c-.168-.095-.373-.212-.592-.327a9.895 9.895 0 00-2.978-1.015l-.158.905a8.982 8.982 0 012.709.924c.209.11.378.206.535.296l.265.15c.11.06.221.117.326.16zM104.361 17.005a3.807 3.807 0 011.637-.203l-.101.913a2.897 2.897 0 00-1.224.154c-.45.163-.848.453-1.061.95l-.844-.363c.339-.79.974-1.228 1.593-1.451z" clip-rule="evenodd" fill="#be4c2d" fill-rule="evenodd"/><path d="M107.469 26.492c.954.436 2.244.475 3.116.396l-.058-.688c-.977.09-4.596.292-4.083-2.708-.227 1.33-.277 2.405 1.025 3z" clip-rule="evenodd" fill="#e27659" fill-rule="evenodd"/><path d="M119.587 18.158c1.455 1.532 4.412 4.642 4.596 4.825 0-.919 1.608-8.961 2.068-10.11.459-1.149.689-3.447-.46-4.596-3.681-4.844-8.017-5.277-8.872-5.293.71-.125 1.912-1.639.37-2.52-1.608-.919-6.434-.23-10.11 0-3.677.23-7.782 5.056-7.453 7.583.59 2.298 2.397-.689 1.708 2.758-.313 3.676-.313 4.366.147 8.732.459-6.434 1.232-8.732 1.921-8.732h5.285c1.609 0 5.285-1.379 7.353-1.379 1.655 0 3.141 1.685 3.677 2.528z" fill="#222b54"/><path d="M124.56 27.809c-.689.69-2.987.23-3.676.23 0-1.609.459-5.975.459-6.894.69.46 1.839-1.838 2.988-1.838.459 0 2.297-.466 2.297 3.447 0 3.217-1.378 4.366-2.068 5.055z" fill="#fe987c"/><path d="M112.253 18.459a1.387 1.387 0 001.271 1.477 1.382 1.382 0 001.333-.753 1.36 1.36 0 00.144-.518l-1.374-.103zM104.481 19.385a1.148 1.148 0 001.797.66 1.145 1.145 0 00.441-1.202l-1.119.27z" fill="#804433"/><path d="M112.253 18.459a1.388 1.388 0 00.753 1.333 1.381 1.381 0 001.52-.185 1.371 1.371 0 00.475-.942zM104.481 19.385a1.162 1.162 0 00.519.712 1.161 1.161 0 00.871.136 1.152 1.152 0 00.848-1.39z" fill="#804433"/><path d="M108.705 33.554c1.287 0 4.519-1.992 5.974-2.988-2.068-.46-8.042 0-9.881 0 .46 1.609 2.298 2.988 3.907 2.988z" fill="#fff"/><path d="M114.737 1.613v1.43h.215c4.838.58 6.981 4.897 6.981 9.9v6.122h1.429v-6.122c0-5.556-2.533-10.661-8.287-11.325z" clip-rule="evenodd" fill="#46cbe9" fill-rule="evenodd"/><path d="M98.485 30.188l.01-.017 2.662-4.023v2.589l-1.448 2.188c-.349.602-.772 1.502-.723 2.323.023.386.15.75.454 1.078.313.338.856.686 1.791.943a94.07 94.07 0 003.962.992l.065.015.022.005-.156.697-.156.697-.024-.005-.067-.015-.256-.059a98.999 98.999 0 01-3.769-.95c-1.107-.304-1.916-.76-2.461-1.35a3.103 3.103 0 01-.831-1.962c-.078-1.289.562-2.523.925-3.146z" fill="#46cbe9"/><path d="M107.241 37.648a1.73 1.73 0 00-1.097-2.187l-2.1-.697a1.73 1.73 0 00-1.091 3.283l2.101.698a1.73 1.73 0 002.187-1.097zM126.736 23.602c.276-2.117-1.032-4.032-2.92-4.278l-2.275-.296c-1.889-.246-3.643 1.27-3.919 3.386l-.36 2.761c-.275 2.117 1.032 4.032 2.921 4.278l2.274.296c1.889.246 3.644-1.27 3.92-3.386z" fill="#171921"/><path d="M107.18.464c-3.677.23-7.813 7.124-7.353 7.354 5.236-1.762 17.033-4.734 18.07-4.366.689 0 2.068-1.839.459-2.758-1.608-.919-7.5-.46-11.176-.23z" fill="#222b54"/><path d="M80.425 55.843l22.979-7.813h20.221c2.911.996 10.065 3.953 15.396 7.813-2.987 12.868-1.149 86.17 0 86.399 1.149.23-58.596-.459-58.596-2.068 0-1.608 3.217-16.314 4.596-22.748 1.379-6.434.69-25.047 0-31.71-.551-5.332-3.293-22.137-4.596-29.873z" fill="#656691"/><path d="M100.004 48.49c1.287-.368 2.098-2.294 2.481-4.515 1.103 0 5.945 1.455 8.09 2.987 0 0 3.541-1.65 5.974-2.068 2.547-.438 6.617 0 6.617 0l1.655 3.596L118 54l-7.425-4.591L104.5 53c-1.915-2.298-5.782-4.143-4.496-4.51z" fill="#fff"/><path d="M147.063 59.98l-23.208-11.95 13.98 46.52 23.016 7.71-5.082-22.979z" fill="#656691"/><path d="M105.931 84.336l6.205-2.527.919 3.447-7.353.23z" fill="#e27659"/><path d="M106.621 114.014l8.602-54.495 33.219 6.552-5.042 51.814z" fill="#46cbe9"/><mask id="c" maskUnits="userSpaceOnUse" x="106" y="59" width="43" height="59"><path d="M106.621 114.014l8.602-54.495 33.219 6.552-5.042 51.814z" fill="#42525f"/></mask><g mask="url(#c)"><path d="M112.136 117.885c2.987-19.685 9.054-59.239 9.421-59.974l-10.8-1.149-9.651 59.285z" fill="#e9f0f6"/></g><path d="M105.702 85.256l5.805-.09h3.878c.239-4.327 2.287-8.815 3.282-10.518 1.193-.6 3.281-1.021 2.088 2.104-1.194 3.125-.497 10.518 0 13.823l1.491 3.606-3.579 9.917-13.425-4.508z" fill="#fd9a7b"/><path d="M116.272 109.944l5.055-18.255 39.523 7.813.92 10.442-5.056 7.481h-6.542z" fill="#656691"/><path d="M37.685 27.196l1.123-2.776 3.45-.288.482 4.596h-3.61zM54.78 23.605c-1.01.777-3.143 1.814-3.584 1.814l-1.103 2.85 4.688-.778c.919-.69 2.923-2.383 3.585-3.627 0-1.813-2.574-1.036-3.585-.259z" fill="#e27659"/><rect y="25.971" width="95.131" height="82.263" rx="15" fill="#fff"/><rect x="28.494" y="38.379" width="54.689" height="4.596" rx="2.298" fill="#c0ccda"/><rect x="28.494" y="46.652" width="27.115" height="4.596" rx="2.298" fill="#c0ccda"/><rect x="28.494" y="59.979" width="54.689" height="4.596" rx="2.298" fill="#c0ccda"/><rect x="28" y="68" width="15" height="5" rx="2.5" fill="#c0ccda"/><rect x="28.494" y="82.498" width="54.689" height="4.596" rx="2.298" fill="#c0ccda"/><rect x="28.494" y="90.77" width="42.74" height="4.596" rx="2.298" fill="#c0ccda"/><path d="M21.407 37.57a.475.475 0 01.111.647l-6.553 9.708c-.492.73-1.6.74-2.168.1L9.951 44.81a1.171 1.171 0 01.158-1.711 1.33 1.33 0 011.806.15l1.883 2.126 6.886-7.74a.54.54 0 01.723-.066zM21.407 60.548a.475.475 0 01.111.648l-6.553 9.708c-.492.73-1.6.74-2.168.1l-2.846-3.215a1.171 1.171 0 01.158-1.711 1.33 1.33 0 011.806.15l1.883 2.126 6.886-7.74a.54.54 0 01.723-.066zM21.407 83.526a.475.475 0 01.111.649l-6.553 9.708c-.492.73-1.6.74-2.168.099l-2.846-3.215a1.171 1.171 0 01.158-1.71 1.33 1.33 0 011.806.149l1.883 2.127 6.886-7.74a.54.54 0 01.723-.067z" fill="#2fa84f"/><path d="M42.332 22.441c-1.644.297-3.728 2.092-3.728 2.092s1.398 3.022 2.563 3.72c.947.082 1.621.12 2.563 0 1.166.464 3.23 1.388 5.36 1.394 1.398-.465 1.631-.232 3.495-.465 1.398-.465 2.564-1.86 2.564-2.324-.467-1.395-2.098-3.487-2.098-3.487l-3.262-2.325s-1.745-.294-2.796 0c-1.022.287-1.302 1.134-2.33 1.395-.882.224-1.435-.162-2.33 0z" fill="#fe987c"/></g><path d="M55.656 119.906c-.166-1.08-.452-2.145-.974-3.119-.132-.246-1.17-1.999-1.376-1.907-.481.215 2.309 4.689 2.35 5.026zm10.23.429c-.025.024-.1 1.279-.142 1.652a37.733 37.733 0 01-.346 2.361c.319-1.324.575-2.579.487-4.013zm-41.928-17.617c2.787-3.128 7.609-4.296 11.63-4.453 10.452-.407 19.848 3.683 27.256 11.099 4.981 4.985 5.835 9.944 3.703 16.384-.243.735-.209.519.434 1.127 2.539 2.401 5.125 4.784 7.373 7.466.904 1.079 3.443 3.832 3.104 5.24-.312 1.295-1.288-.045-1.538-.541-.77-1.529-1.763-2.938-2.889-4.231-2.137-2.454-4.544-4.662-6.908-6.893-2.435-2.298-5.582-4.322-8.412-6.103-1.728-1.087-3.517-2.096-5.453-2.788-.392-.14-1.834-.848-2.213-.679.163-.072 1.538 1.03 1.728 1.148 2.172 1.348 4.492 2.411 6.608 3.862-.168.238-1.397.035-1.734.041-2.094.035-4.43.352-6.344 1.206.343-.153 1.388.052 1.813.045a20.41 20.41 0 003.903-.455c.616-.131 1.636-.58 2.282-.508.039.004.136.309.292.332.157.024.496-.157.534-.149 1.286.294 6.015 3.771 5.908 4.665-.048.397-.847.986-1.142 1.255-3.16 2.873-7.825 3.008-11.785 2.019-10.151-2.535-19.628-7.195-25.71-15.767-2.517-3.548-6.067-9.251-2.44-13.322z" clip-rule="evenodd" fill="#d65d5d" fill-rule="evenodd"/><defs id="defs127"><linearGradient id="paint0_linear" x1="81" y1="137" x2="81" y2="0" gradientUnits="userSpaceOnUse"><stop stop-color="#FFC75F" id="stop117"/><stop offset="1" stop-color="#FF9671" id="stop119"/></linearGradient><linearGradient id="paint1_linear" x1="87" y1="140" x2="81" y2="0" gradientUnits="userSpaceOnUse"><stop stop-color="#98FF96" id="stop122"/><stop offset="1" stop-color="#86D6CC" id="stop124"/></linearGradient></defs></svg>